<svg id="Capa_1" enable-background="new 0 0 512 512" height="512" viewBox="0 0 512 512" width="512" xmlns="http://www.w3.org/2000/svg"><g><path d="m320.961 437.205h-41.737c-6.199 0-11.224-5.025-11.224-11.224v-88.565h64.184v88.565c.001 6.199-5.024 11.224-11.223 11.224z" fill="#b8866b"/><path d="m320.961 437.205h-41.737c-6.199 0-11.224-5.025-11.224-11.224v-19.105h64.184v19.105c.001 6.199-5.024 11.224-11.223 11.224z" fill="#424952"/><path d="m95.326 240.644c-27.8 0-45.209-11.059-54.918-20.335-12.564-12.004-19.77-28.414-19.77-45.021 0-4.142 3.358-7.5 7.5-7.5s7.5 3.358 7.5 7.5c0 24.412 20.919 50.356 59.688 50.356 4.142 0 7.5 3.358 7.5 7.5s-3.358 7.5-7.5 7.5z" fill="#cb8a5a"/><path d="m48.776 161.383c0-13.061-9.24-38.004-20.638-38.004s-20.638 24.943-20.638 38.004 9.24 23.649 20.638 23.649 20.638-10.588 20.638-23.649z" fill="#4e5660"/><path d="m155.86 184.353c-48.704 0-88.187 39.483-88.187 88.187v153.441c0 6.199 5.025 11.224 11.224 11.224h41.737c6.199 0 11.224-5.025 11.224-11.224v-57.122h73.752v57.122c0 6.199 5.025 11.224 11.224 11.224h41.737c6.199 0 11.224-5.025 11.224-11.224v-57.122h12.612c36.419 0 65.942-29.523 65.942-65.942v-118.564z" fill="#cc9e83"/><path d="m145.275 185.008c-43.71 5.233-77.602 42.413-77.602 87.533v153.441c0 6.199 5.025 11.224 11.224 11.224h41.737c6.199 0 11.224-5.025 11.224-11.224v-57.122h53.068c-41.713-48.335-46.628-123.638-39.651-183.852z" fill="#b8866b"/><path d="m155.86 184.353c-11.453 0-22.384 2.207-32.424 6.18v96.571c0 7.76 6.291 14.051 14.051 14.051h96.683c7.76 0 14.051-6.291 14.051-14.051v-102.751z" fill="#ebca5f"/><path d="m151.083 301.155c-9.896-38.056-10.014-79.839-5.808-116.142-7.618.92-14.942 2.791-21.838 5.52v96.571c0 7.76 6.291 14.051 14.051 14.051z" fill="#e3b72e"/><ellipse cx="185.829" cy="230.627" fill="#8ec853" rx="17.868" ry="17.868" transform="matrix(.973 -.232 .232 .973 -48.346 49.29)"/><path d="m123.436 266.081h124.785v15h-124.785z" fill="#e8899e"/><path d="m120.633 437.205h-41.737c-6.199 0-11.224-5.025-11.224-11.224v-19.105h64.184v19.105c.001 6.199-5.024 11.224-11.223 11.224z" fill="#4e5660"/><path d="m258.569 437.205h-41.737c-6.199 0-11.224-5.025-11.224-11.224v-19.105h64.184v19.105c.001 6.199-5.024 11.224-11.223 11.224z" fill="#4e5660"/><path d="m446.91 145.512c8.867 0 16.897-5.239 20.469-13.356l15.011-34.112c6.082-13.821-7.999-27.902-21.82-21.82l-34.112 15.011c-8.116 3.572-13.356 11.601-13.356 20.469.001 18.672 15.137 33.808 33.808 33.808z" fill="#f6e3a3"/><ellipse cx="348.348" cy="184.353" fill="#cb8a5a" rx="126.952" ry="102.51"/><path d="m458.285 197.136c9.212 9.212 23.124 11.705 33.199 12.171 7.301.338 13.341-5.701 13.003-13.003-.466-10.075-2.959-23.987-12.171-33.199s-23.124-11.705-33.199-12.171c-7.301-.338-13.341 5.701-13.003 13.003.466 10.075 2.959 23.986 12.171 33.199z" fill="#b8866b"/><ellipse cx="348.348" cy="184.353" fill="#cc9e83" rx="126.952" ry="102.51"/><path d="m348.348 286.863c26.018 0 50.204-5.018 70.34-14.702-182.971-20.69-156.705-134.987-124.579-182.358-42.98 13.823-72.713 45.568-72.713 94.55-.001 66.1 56.838 102.51 126.952 102.51z" fill="#b8866b"/><path d="m249.785 145.512c-8.867 0-16.897-5.239-20.469-13.356l-15.011-34.112c-6.082-13.821 7.999-27.902 21.82-21.82l34.112 15.011c8.116 3.572 13.356 11.601 13.356 20.469-.001 18.672-15.136 33.808-33.808 33.808z" fill="#f6e3a3"/><g fill="#f1b3c1"><ellipse cx="294.988" cy="195.3" rx="26.738" ry="21.293"/><ellipse cx="439.918" cy="195.3" rx="26.738" ry="21.293"/></g><ellipse cx="367.453" cy="241.464" fill="#f6e3a3" rx="81.021" ry="57.369"/><path d="m367.454 146.184c-40.538 0-71.685-32.18-81.797-52.464-1.849-3.707-.341-8.21 3.366-10.059 3.708-1.848 8.211-.34 10.058 3.367 9.14 18.335 36.395 44.156 68.373 44.156 31.9 0 54.039-24.17 60.065-31.578 2.613-3.213 7.338-3.7 10.551-1.086 3.214 2.614 3.699 7.337 1.086 10.551-7.083 8.706-33.182 37.113-71.702 37.113z" fill="#ebca5f"/><ellipse cx="367.453" cy="138.684" fill="#ebca5f" rx="15.232" ry="20.932"/><path d="m238.411 197.136c-9.212 9.212-23.124 11.705-33.199 12.171-7.301.338-13.341-5.701-13.003-13.003.467-10.075 2.959-23.987 12.171-33.199s23.124-11.705 33.199-12.171c7.301-.338 13.341 5.701 13.003 13.003-.467 10.075-2.959 23.986-12.171 33.199z" fill="#cc9e83"/><path d="m400.424 247.65c-3.122-2.722-7.86-2.397-10.582.726-4.137 4.746-10.108 7.468-16.385 7.468s-12.249-2.722-16.385-7.468c-2.723-3.124-7.46-3.448-10.582-.727s-3.448 7.459-.727 10.581c6.985 8.016 17.079 12.613 27.693 12.613 10.613 0 20.707-4.597 27.693-12.613 2.723-3.121 2.398-7.858-.725-10.58zm31.412-73.591v-9.442c0-4.142-3.357-7.5-7.5-7.5s-7.5 3.358-7.5 7.5v9.442c0 4.142 3.357 7.5 7.5 7.5 4.142 0 7.5-3.358 7.5-7.5zm-128.764-9.442v9.442c0 4.142 3.357 7.5 7.5 7.5s7.5-3.358 7.5-7.5v-9.442c0-4.142-3.357-7.5-7.5-7.5s-7.5 3.358-7.5 7.5zm194.547-6.816c-5.448-5.448-12.63-9.4-21.373-11.795-1.021-2.76-2.149-5.461-3.404-8.088.51-.893.989-1.803 1.401-2.741l15.012-34.111c4.027-9.15 2.061-19.629-5.008-26.698-7.068-7.069-17.548-9.035-26.697-5.008l-34.112 15.012c-1.956.861-3.793 1.927-5.507 3.176-1.323-.57-2.664-1.126-4.024-1.663-3.85-1.522-8.209.365-9.733 4.217-1.523 3.852.365 8.209 4.217 9.732 38.312 15.146 59.41 45.163 59.41 84.521 0 6.925-.676 13.529-1.976 19.825-.035.139-.063.278-.089.418-2.057 9.724-5.655 18.684-10.796 26.827-2.897-13.952-11.824-26.708-25.861-36.647-16.559-11.725-38.443-18.182-61.624-18.182s-45.066 6.457-61.625 18.182c-17.345 12.281-26.896 28.862-26.896 46.687 0 9.235 2.585 18.129 7.468 26.272-27.6-11.726-46.562-31.682-53.956-57.301 4.043-2.012 7.894-4.619 11.27-7.995 10.913-10.913 13.832-26.773 14.36-38.156.19-4.118-.924-8.172-3.106-11.608 20.338-2.559 36.125-19.95 36.125-40.97 0-4.202-.897-8.258-2.52-11.964 17.384-6.816 37.853-10.398 59.776-10.398 9.852 0 19.479.719 28.615 2.136 4.111.639 7.928-2.169 8.562-6.261.636-4.093-2.168-7.926-6.261-8.561-9.896-1.536-20.297-2.314-30.916-2.314-25.589 0-49.513 4.56-69.565 13.208-1.703-1.238-3.549-2.311-5.526-3.181l-34.111-15.011c-9.15-4.027-19.629-2.061-26.698 5.008-7.068 7.069-9.034 17.548-5.008 26.698l15.011 34.111c.429.974.922 1.906 1.443 2.815-1.245 2.599-2.381 5.267-3.397 7.988-7.587 2.077-15.286 5.686-21.421 11.822-5.497 5.497-8.963 12.249-11.119 19.052h-32.098c-34.533 0-64.849 18.389-81.677 45.887-19.949-5.844-31.186-19.34-35.86-32.329 10.494-4.528 17.953-15.829 17.953-29.029 0-7.809-2.657-18.452-6.769-27.116-5.71-12.03-13.099-18.388-21.369-18.388s-15.659 6.358-21.369 18.388c-4.114 8.663-6.771 19.307-6.771 27.115 0 15.254 9.959 27.973 23.055 30.631 5.983 20.745 22.233 36.936 44.256 44.276-4.597 11.187-7.139 23.427-7.139 36.251v89.951c0 4.142 3.358 7.5 7.5 7.5s7.5-3.358 7.5-7.5v-89.952c0-29.972 16.44-56.161 40.764-70.074v84.637c0 11.883 9.668 21.551 21.551 21.551h96.683c11.883 0 21.551-9.668 21.551-21.551v-19.447c14.596 10.616 32.627 18.383 53.486 22.76 9.286 5.931 20.041 10.302 31.63 12.949-.244 32.018-26.357 57.993-58.432 57.993h-12.612c-4.143 0-7.5 3.358-7.5 7.5v57.122c0 2.053-1.671 3.724-3.724 3.724h-41.737c-2.053 0-3.724-1.67-3.724-3.724v-57.122c0-4.142-3.358-7.5-7.5-7.5h-73.752c-4.142 0-7.5 3.358-7.5 7.5v57.122c0 2.053-1.67 3.724-3.724 3.724h-41.736c-2.053 0-3.724-1.67-3.724-3.724v-30.418c0-4.142-3.358-7.5-7.5-7.5s-7.5 3.358-7.5 7.5v30.418c0 10.324 8.399 18.724 18.724 18.724h41.737c10.324 0 18.724-8.4 18.724-18.724v-49.622h58.752v49.622c0 10.324 8.399 18.724 18.724 18.724h41.737c3.809 0 7.352-1.15 10.312-3.111 3.002 1.989 6.578 3.111 10.343 3.111h41.736c10.325 0 18.725-8.4 18.725-18.724v-77.175c9.544-11.889 15.467-26.794 16.091-43.042 3.844.367 7.74.568 11.678.568 23.181 0 45.065-6.457 61.624-18.182 12.164-8.613 20.477-19.344 24.368-31.132 11.919-11.803 20.348-25.937 25.027-41.79 3.993.834 8.224 1.365 12.664 1.57.305.014.608.021.913.021 5.263 0 10.359-2.103 14.103-5.847 3.96-3.96 6.083-9.433 5.825-15.016-.527-11.38-3.447-27.24-14.36-38.154zm-469.481 19.732c-7.244 0-13.138-7.245-13.138-16.149 0-5.579 2.188-14.084 5.32-20.684 3.832-8.072 7.191-9.82 7.817-9.82.627 0 3.986 1.747 7.817 9.82 3.133 6.6 5.32 15.105 5.32 20.684.001 8.904-5.892 16.149-13.136 16.149zm193.032-82.51c-2.315-5.261.857-9.022 1.885-10.05.764-.763 3.037-2.712 6.314-2.712 1.132 0 2.384.233 3.735.827l34.112 15.012c1.789.787 3.362 1.907 4.674 3.259.033.036.067.07.1.106 2.579 2.713 4.102 6.353 4.102 10.239 0 14.506-11.801 26.307-26.307 26.307-4.41 0-8.511-1.953-11.29-5.197-.04-.051-.081-.102-.123-.152-.878-1.053-1.622-2.233-2.192-3.528zm-20.287 91.704c.174-.522.297-1.068.352-1.634 1.403-6.059 3.939-12.176 8.448-16.685 4.752-4.752 11.291-7.32 17.665-8.671.064-.01.126-.026.189-.037 3.645-.759 7.23-1.128 10.389-1.274.081-.004.161-.006.24-.006 1.752 0 2.922.9 3.476 1.454.578.578 1.535 1.83 1.448 3.715-.404 8.735-2.465 20.726-9.982 28.243-3.243 3.243-7.318 5.466-11.605 6.983-.203.059-.4.127-.594.202-5.477 1.848-11.25 2.576-16.044 2.797-1.888.09-3.138-.87-3.716-1.448s-1.535-1.83-1.448-3.716c.14-3.023.487-6.439 1.182-9.923zm-4.687 43.9c0 5.717-4.651 10.368-10.368 10.368s-10.368-4.651-10.368-10.368 4.651-10.368 10.368-10.368 10.368 4.651 10.368 10.368zm44.525 56.477c0 3.612-2.939 6.551-6.551 6.551h-96.683c-3.612 0-6.551-2.939-6.551-6.551v-91.293c7.855-2.558 16.227-3.958 24.923-3.958h29.148c-.133 1.416-.23 2.793-.29 4.104-.15 3.238.524 6.43 1.871 9.321-.253-.007-.505-.019-.759-.019-13.988 0-25.368 11.38-25.368 25.368s11.38 25.368 25.368 25.368 25.368-11.38 25.368-25.368c0-5.135-1.538-9.916-4.172-13.914 3.455-.217 7.257-.667 11.179-1.482 4.38 14.884 12.034 28.082 22.518 39.242v32.631zm83.964 138.877c0 2.054-1.671 3.724-3.725 3.724h-41.736c-.809 0-1.57-.268-2.195-.725.159-.979.263-1.975.263-2.998v-49.622h5.112c15.734 0 30.315-4.99 42.28-13.447v63.068zm42.769-134.649c-6.016 0-11.859-.504-17.458-1.432-.312-.07-.631-.122-.956-.152-12.126-2.129-23.035-6.318-31.896-11.969-.544-.483-1.161-.89-1.84-1.202-13.201-9.02-21.371-21.43-21.371-35.113 0-27.498 32.981-49.869 73.521-49.869 40.539 0 73.521 22.371 73.521 49.869-.001 27.497-32.982 49.868-73.521 49.868zm96.03-168.947c-7.614-10.271-17.4-19.133-29.224-26.389l29.33-12.907c5.265-2.318 9.022.857 10.05 1.885 1.027 1.027 4.2 4.789 1.886 10.049zm32.063 77.982c-.579.578-1.844 1.54-3.717 1.448-3.6-.167-6.998-.586-10.17-1.241.756-5.263 1.14-10.675 1.14-16.22 0-7.054-.583-13.847-1.72-20.361 2.264 1.27 4.254 2.737 5.932 4.415 7.518 7.518 9.578 19.508 9.982 28.243.089 1.886-.868 3.138-1.447 3.716z"/></g></svg>