<svg id="Capa_1" enable-background="new 0 0 512 512" height="512" viewBox="0 0 512 512" width="512" xmlns="http://www.w3.org/2000/svg"><g><g><circle cx="107.038" cy="43.914" fill="#e94444" r="43.914"/></g><g><path d="m150.947 43.916c0 24.251-19.652 43.913-43.913 43.913-14.332 0-27.055-6.867-35.077-17.476 4.073 1.247 8.393 1.917 12.868 1.917 24.251 0 43.913-19.662 43.913-43.913 0-9.929-3.299-19.085-8.846-26.437 17.981 5.486 31.055 22.22 31.055 41.996z" fill="#d83131"/></g><g><path d="m446.94 59.179c4.729-6.281.248-15.265-7.614-15.265h-160.414-160.414c-7.863 0-12.344 8.983-7.614 15.265l138.645 184.138c7.317 9.717 11.274 21.551 11.274 33.715v147.191c0 30.825-21.292 57.869-51.439 64.298-.851.182-1.717.356-2.596.524 0 0-22.956 3.279-27.328 22.956h99.473 99.473c-4.373-19.676-27.328-22.956-27.328-22.956-.781-.149-1.551-.303-2.31-.463-30.269-6.379-51.725-33.424-51.725-64.358v-147.192c0-12.164 3.957-23.998 11.274-33.715z" fill="#dff6fd"/><path d="m446.94 59.179c4.729-6.281.248-15.265-7.614-15.265h-160.414-160.414c-7.863 0-12.344 8.983-7.614 15.265l16.363 21.733 6.743 4.939 117.125 155.169c3.605 4.788 6.647 9.38 8.549 14.982.395 1.163-1.087 5.346-.769 6.533 1.259 4.7 1.908 9.572 1.908 14.499v147.191c0 30.825-21.292 57.869-51.439 64.298-.851.182-1.717.356-2.596.524 0 0-22.956 3.279-27.328 22.956h99.473 99.473c-4.373-19.676-27.328-22.956-27.328-22.956-.781-.149-1.551-.303-2.31-.463-30.269-6.379-51.725-33.424-51.725-64.358v-147.194c0-5.4.78-10.736 2.288-15.85.246-.836-.171-2.859.114-3.682 1.899-5.486 4.698-11.139 8.235-15.837l113.393-149.979 3.456-2.714z" fill="#c8effe"/><path d="m297.021 277.03v147.19c0 30.935 21.452 57.982 51.728 64.357.753.16 1.526.32 2.307.471 0 0 22.959 3.277 27.329 22.95h-23.458c-2.194-9.879-10.147-11.988-19.723-13.928-18.834-3.816-33.565-12.883-45.038-29.238-9.066-12.923-13.826-28.859-13.826-44.611 0-.076 0-147.19 0-147.19 0-12.167 3.955-23.995 11.272-33.714l135.872-184.134c4.727-6.281.254-15.265-7.609-15.265h23.449c7.863 0 12.346 8.984 7.618 15.265l-138.648 184.134c-7.318 9.718-11.273 21.546-11.273 33.713z" fill="#99e6fc"/><path d="m425.421 87.755-117.127 155.558c-4.352 5.78-7.523 12.318-9.364 19.221l-40.037.004-.423-1.491c-1.881-6.351-4.904-12.367-8.941-17.734l-122.275-162.401c39.741-2.383 80.29 7.267 119.017 16.208 49.027 11.314 102.573 21.348 150.467 4.844 10.319-3.555 19.948-8.39 28.683-14.209z" fill="#e94444"/><path d="m425.424 87.755s-116.907 155.264-117.131 155.562c-2.485 3.3-4.644 6.908-6.329 10.698-1.032 2.322-1.921 4.736-2.656 7.167-.132.443-.264.904-.377 1.356h-20.68c1.846-6.903 5.01-13.438 9.361-19.22l102.818-139.338c2.119-.622 4.219-1.29 6.31-2.015 10.321-3.56 19.945-8.391 28.684-14.21z" fill="#d83131"/></g></g></svg>