<svg id="Layer_3" enable-background="new 0 0 64 64" height="512" viewBox="0 0 64 64" width="512" xmlns="http://www.w3.org/2000/svg"><g><g><path d="m28 34v14c0 3.314 2.686 6 6 6h-10v2h-22v-22z" fill="#3f6649"/></g><g><path d="m2 30h26v4h-26z" fill="#5f986e"/></g><g><path d="m2 30h23v4h-23z" fill="#7ecb92"/></g><g><path d="m4 2h26v28h-26z" fill="#916b43"/></g><g><path d="m4 2h23v28h-23z" fill="#c18e59"/></g><g><path d="m54 18c1.889-.63 3.37-2.111 4-4 .63 1.889 2.111 3.37 4 4-1.889.63-3.37 2.111-4 4-.63-1.889-2.111-3.37-4-4z" fill="#f0d365"/></g><g><path d="m40 6c1.889-.63 3.37-2.111 4-4 .63 1.889 2.111 3.37 4 4-1.889.63-3.37 2.111-4 4-.63-1.889-2.111-3.37-4-4z" fill="#f0d365"/></g><g><path d="m46 54h-12c-3.314 0-6-2.686-6-6v-22h24v22c0 3.314-2.686 6-6 6z" fill="#74787a"/></g><g><path d="m49 48v-22h-21v22c0 3.314 2.686 6 6 6h9c3.314 0 6-2.686 6-6z" fill="#aeb3b7"/></g><g><path d="m40 32v6c0 1.105.895 2 2 2 1.105 0 2-.895 2-2 0-1.105.895-2 2-2 1.105 0 2 .895 2 2v4c0 1.105.895 2 2 2 1.105 0 2-.895 2-2v-10z" fill="#c18e59"/></g><g><path d="m52 50h5c2.761 0 5-2.239 5-5v-10c0-2.761-2.239-5-5-5h-5v4h4c1.105 0 2 .895 2 2v8c0 1.105-.895 2-2 2h-4z" fill="#aeb3b7"/></g><g><path d="m26 58 4 4h24l4-4z" fill="#74787a"/></g><g><path d="m26 58 4 4h21l4-4z" fill="#aeb3b7"/></g><g><path d="m24 54h36v4h-36z" fill="#74787a"/></g><g><path d="m24 54h33v4h-33z" fill="#aeb3b7"/></g><g><path d="m24 57h-22c-.552 0-1-.448-1-1v-26c0-.552.448-1 1-1h26v2h-25v24h21z"/></g><g><path d="m2 33h26v2h-26z"/></g><g><path d="m5 30h-2v-28c0-.552.448-1 1-1h26c.552 0 1 .448 1 1v24h-2v-23h-24z"/></g><g><path d="m16 2h2v28h-2z"/></g><g><path d="m4 9h26v2h-26z"/></g><g><path d="m4 17h26v2h-26z"/></g><g><path d="m4 25h24v2h-24z"/></g><g><path d="m60 59h-36c-.552 0-1-.448-1-1v-4c0-.552.448-1 1-1h36c.552 0 1 .448 1 1v4c0 .552-.448 1-1 1zm-35-2h34v-2h-34z"/></g><g><path d="m54 63h-24c-.265 0-.52-.105-.707-.293l-4-4 1.414-1.414 3.707 3.707h23.172l3.707-3.707 1.414 1.414-4 4c-.187.188-.442.293-.707.293z"/></g><g><path d="m46 55h-12c-3.86 0-7-3.14-7-7v-22c0-.552.448-1 1-1h24c.552 0 1 .448 1 1v22c0 3.86-3.14 7-7 7zm-17-28v21c0 2.757 2.243 5 5 5h12c2.757 0 5-2.243 5-5v-21z"/></g><g><path d="m56 47h-4v-2h4c.551 0 1-.449 1-1v-8c0-.551-.449-1-1-1h-4v-2h4c1.654 0 3 1.346 3 3v8c0 1.654-1.346 3-3 3z"/></g><g><path d="m57 51h-5v-2h5c2.206 0 4-1.794 4-4v-10c0-2.206-1.794-4-4-4h-5v-2h5c3.309 0 6 2.691 6 6v10c0 3.309-2.691 6-6 6z"/></g><g><path d="m28 31h24v2h-24z"/></g><g><path d="m50 45c-1.654 0-3-1.346-3-3v-4c0-.551-.449-1-1-1s-1 .449-1 1c0 1.654-1.346 3-3 3s-3-1.346-3-3v-6h2v6c0 .551.449 1 1 1s1-.449 1-1c0-1.654 1.346-3 3-3s3 1.346 3 3v4c0 .551.449 1 1 1s1-.449 1-1v-10h2v10c0 1.654-1.346 3-3 3z"/></g><g><path d="m58 23c-.431 0-.812-.275-.949-.684-.527-1.582-1.786-2.84-3.367-3.367-.409-.137-.684-.518-.684-.949s.275-.812.684-.949c1.582-.527 2.84-1.786 3.367-3.367.137-.409.518-.684.949-.684s.812.275.949.684c.527 1.582 1.786 2.84 3.367 3.367.409.137.684.518.684.949s-.275.812-.684.949c-1.582.527-2.84 1.786-3.367 3.367-.137.409-.518.684-.949.684zm-1.804-5c.701.492 1.312 1.103 1.804 1.804.492-.701 1.103-1.312 1.804-1.804-.701-.492-1.312-1.103-1.804-1.804-.492.701-1.103 1.312-1.804 1.804z"/></g><g><path d="m44 11c-.431 0-.812-.275-.949-.684-.527-1.582-1.786-2.84-3.367-3.367-.409-.137-.684-.518-.684-.949s.275-.812.684-.949c1.582-.527 2.84-1.786 3.367-3.367.137-.409.518-.684.949-.684s.812.275.949.684c.527 1.582 1.786 2.84 3.367 3.367.409.137.684.518.684.949s-.275.812-.684.949c-1.582.527-2.84 1.786-3.367 3.367-.137.409-.518.684-.949.684zm-1.804-5c.701.492 1.312 1.103 1.804 1.804.492-.701 1.103-1.312 1.804-1.804-.701-.492-1.312-1.103-1.804-1.804-.492.701-1.103 1.312-1.804 1.804z"/></g></g></svg>