<svg id="Layer_1" height="512" viewBox="0 0 512 512" width="512" xmlns="http://www.w3.org/2000/svg" data-name="Layer 1"><path d="m410.55 395.82 24.23 94.3h-109.43l24.19-94.16.04.01h60.4z" fill="#49bdff"/><path d="m410.44 395.39.11.43-.57.15h-60.4l-.04-.01.15-.57v-29.89h60.29.46z" fill="#3090fc"/><path d="m430.78 268.67-20.34 96.3v.53h-.46-60.29v-.53l-20.34-96.3z" fill="#49bdff"/><path d="m238 99.91v.05h-49.54a50.53 50.53 0 0 1 14.32-35.27z" fill="#fff27d"/><path d="m238 50v49.91l-35.22-35.22a50.54 50.54 0 0 1 35.21-15.37z" fill="#f9d438"/><path d="m238.31 99.96h-.26l-.05-.05v-49.91l-.01-.68c.39-.02.78-.02 1.17-.02a50.561 50.561 0 0 1 35.76 14.76l-.17.17-36.21 36.22h-.01l-.22-.23z" fill="#fff27d"/><path d="m274.75 64.23.17-.17a50.524 50.524 0 0 1 14.94 35.94c0 .67-.01 1.34-.05 2h-49.72l-1.55-1.55z" fill="#f9d438"/><path d="m240.09 102h49.72a50.464 50.464 0 0 1 -15.34 34.38l-.16-.16z" fill="#fff27d"/><path d="m238.31 139.23v-39.01l.22.23h.01l1.55 1.55 34.22 34.22.16.16a50.521 50.521 0 0 1 -35.31 14.32l-.3.03q-.54-5.73-.55-11.5z" fill="#f9d438"/><path d="m202.78 64.69a50.53 50.53 0 0 0 -14.32 35.27h-18.46a69.165 69.165 0 1 1 72.09 69.14 120.124 120.124 0 0 1 -3.23-18.37l.3-.03a50.686 50.686 0 0 0 50.65-48.7c.04-.66.05-1.33.05-2a50.7 50.7 0 0 0 -50.7-50.7c-.39 0-.78 0-1.17.02a50.54 50.54 0 0 0 -35.21 15.37z" fill="#edb740"/><path d="m269.97 228.74-17.65-33.25c-.93-1.75-1.82-3.53-2.66-5.32a126.355 126.355 0 0 1 -10.955-39.44c-.36-3.82-.705-7.65-.705-11.5v-39.01l.05-.22h-120.05v42.19a119.911 119.911 0 0 1 -12.43 53.35l-16.44 33.2a101.282 101.282 0 0 0 -5.78 13.05l.34.12c17.06 7.61 25.895 19.79 56.625 19.79 32.14 0 41.683-13.32 61.133-20.79 7.59-2.93 16.7-4.96 29.251-4.96 24.48 0 35.96 7.73 47.861 14.72a102.778 102.778 0 0 0 -8.59-21.93z" fill="#ccd3df"/><path d="m118 142.19a119.911 119.911 0 0 1 -12.43 53.35l-16.44 33.2a101.282 101.282 0 0 0 -5.78 13.05l.34.12c11.149 4.973 18.788 11.9 31.318 16.1-1.391-.726-2.821-1.43-4.318-2.1l-.34-.12a101.282 101.282 0 0 1 5.78-13.05l16.44-33.2a119.911 119.911 0 0 0 12.43-53.35v-56.19h-27z" fill="#d4e1f4"/><path d="m110.34 15.883a20.378 20.378 0 1 0 20.378 20.378 20.4 20.4 0 0 0 -20.378-20.378z" fill="#6d7486"/><path d="m278.56 250.67a102.355 102.355 0 1 1 -195.19-8.88l.33.12c17.06 7.61 25.89 19.79 56.62 19.79 32.14 0 41.68-13.32 61.13-20.79 7.59-2.93 16.7-4.96 29.25-4.96 24.48 0 35.96 7.73 47.86 14.72z" fill="#ec5d38"/><path d="m134.2 363.1a102.369 102.369 0 0 1 -23.967-106.911c-9.851-4.2-16.874-9.97-26.533-14.279l-.33-.12a102.378 102.378 0 0 0 63.114 131.8 103 103 0 0 1 -12.284-10.49z" fill="#f98a73"/><path d="m349.58 395.97-.04-.01-24.19 94.16h20l24.187-94.15z" fill="#92deff"/><path d="m369.537 395.97.003-.01.15-.57v-29.89h-20v29.89l-.15.57.04.01z" fill="#49bdff"/><path d="m369.69 364.97-20.34-96.3h-20l20.34 96.3v.53h20z" fill="#92deff"/><path d="m369.537 395.97h.043l-.04-.01z" fill="#49bdff"/><path d="m409.98 395.97h.609l-.039-.15z" fill="#3090fc"/><g fill="#284268"><path d="m239.161 24.85a74.994 74.994 0 0 0 -74.897 69.15h-21.331l-18.884-42.658a20.051 20.051 0 1 0 -10.86 5.114l16.62 37.544h-11.649a6.105 6.105 0 0 0 -6.16 5.96v42.23a114.517 114.517 0 0 1 -11.8 50.683l-16.408 33.127a108.524 108.524 0 0 0 90.208 158.9v99.1h-55.84a6 6 0 1 0 0 12h122.82a6 6 0 1 0 0-12h-54.98v-99.1a108.189 108.189 0 0 0 98.515-135.356 6.024 6.024 0 0 0 -.208-.7 108.968 108.968 0 0 0 -9.024-22.922l-17.658-33.252c-.882-1.66-1.735-3.361-2.531-5.056a113.194 113.194 0 0 1 -5.207-13.212 75.163 75.163 0 0 0 -10.726-149.552zm-125.192 18.968a8.383 8.383 0 1 1 4.751-7.558 8.429 8.429 0 0 1 -4.751 7.558zm161.951 232.872a96.347 96.347 0 1 1 -188.982-26.446c2.157 1.186 4.263 2.435 6.428 3.729 11.286 6.749 22.956 13.727 46.954 13.727q1.44 0 2.823-.033a6 6 0 0 0 -.288-12q-1.242.03-2.535.03c-20.684 0-30.453-5.842-40.8-12.026-2.719-1.626-5.5-3.287-8.511-4.868 1.056-2.465 2.2-4.893 3.455-7.249.026-.049.052-.1.076-.149l16.4-33.2a126.573 126.573 0 0 0 13.06-56.015v-36.19h11.124l58.39 131.817c-3.916 1.849-7.484 3.84-10.963 5.8-6.553 3.692-12.743 7.174-20.926 9.454a6 6 0 1 0 3.221 11.556c9.584-2.671 16.707-6.684 23.6-10.564a112.333 112.333 0 0 1 15.17-7.555c8.054-3.108 16.661-4.557 27.089-4.557 21.351 0 31.694 6.12 42.636 12.6a96.411 96.411 0 0 1 2.579 22.139zm-11.26-45.138q1.615 3.043 3 6.194c-9.039-4.321-20.292-7.8-36.966-7.8a88.421 88.421 0 0 0 -25.977 3.542l-56.469-127.488h83.752v33.23c0 3.945.349 8 .733 12.078a128.031 128.031 0 0 0 11.457 41.41c.878 1.872 1.837 3.752 2.811 5.586zm-41.096-137.552h-28.691a46.164 46.164 0 0 1 8.265-20.426zm-12.081-29.093a44.237 44.237 0 0 1 20.517-9.026v29.544zm39.99 31.093 23.172-23.178a44.223 44.223 0 0 1 9.031 23.178zm31.666 12a44.264 44.264 0 0 1 -8.885 19.678l-19.679-19.678zm-39.139-21.5v-30.934a44.254 44.254 0 0 1 22.134 8.8zm21.471 49.519a44.58 44.58 0 0 1 -21.272 8.36c-.079-1.734-.2-3.455-.2-5.151v-24.523zm-18.708 26.681c-.444-2.11-.818-4.239-1.143-6.373a56.669 56.669 0 0 0 50.18-54.034c.051-.862.057-1.676.057-2.293a56.7 56.7 0 0 0 -56.7-56.7c-.461 0-.923 0-1.384.023a56.356 56.356 0 0 0 -39.3 17.206 55.237 55.237 0 0 0 -15.686 33.471h-6.487a63.16 63.16 0 1 1 70.467 68.7z"/><path d="m416 394.634v-29.034l20.43-95.687a5.593 5.593 0 0 0 -5.65-6.91h-101.43a5.853 5.853 0 0 0 -4.661 2.056 5.75 5.75 0 0 0 -1.054 4.936l20.365 95.605v29.021l-24.306 94.009a5.809 5.809 0 0 0 5.656 7.37h109.43a5.942 5.942 0 0 0 4.741-2.263 5.851 5.851 0 0 0 .85-5.14zm-79.25-119.634h86.63l-17.917 85h-50.8zm-3.664 209 21.1-82h11.476a6 6 0 0 0 0-12h-9.662v-18h48v18h-20.22a6 6 0 0 0 0 12h22.156l21.107 82z"/></g></svg>