<svg id="Capa_1" enable-background="new 0 0 512 512" height="512" viewBox="0 0 512 512" width="512" xmlns="http://www.w3.org/2000/svg"><g><path d="m482.664 37.6c-.091.152 1.257-1.693-20.12 27.4l-22.51 12.03.47 17.97c-123.6 168.242-121.51 161.139-121.51 175.8 0 162.482 5.154 167.97-15.46 183.26-57.302 43.199-40.703 30.684-70.15 52.89-16.668 12.4-40.39.562-40.39-20.23 0-232.151 2.388-222.381-5.64-234l-115.87-157.72 1.51-17c-29.651-16.368-19.561-7.571-43.47-40.11-11.543-16.489.4-37.89 19.39-37.89h414.16c19.305 0 30.664 21.777 19.59 37.6z" fill="#ffec00"/><path d="m482.664 37.6c-.091.152 1.257-1.693-20.12 27.4l-22.51 12.03.47 17.97c-123.6 168.242-121.51 161.139-121.51 175.8 0 162.482 5.154 167.97-15.46 183.26l-47.54 35.84v-489.9h207.08c19.305 0 30.664 21.777 19.59 37.6z" fill="#ffd92e"/><path d="m462.544 65-22.04 30h-369.02l-22.04-30z" fill="#00357b"/><path d="m462.544 65-22.04 30h-184.51v-30z" fill="#001737"/></g></svg>