<svg id="Capa_1" enable-background="new 0 0 512 512" height="512" viewBox="0 0 512 512" width="512" xmlns="http://www.w3.org/2000/svg"><g><path d="m147.827 191.667h305.159v256.667h-305.159z" fill="#994820"/><path d="m300.406 191.667h152.58v256.667h-152.58z" fill="#733916"/><path d="m253.875 35.891c-47.854-47.854-125.719-47.854-173.574 0-47.854 47.854-47.854 125.719 0 173.574 2.929 2.929 6.768 4.394 10.606 4.394s7.678-1.464 10.606-4.394l11.466-11.465 28.594-66.361 100.843-63.077 11.459-11.459c5.858-5.857 5.858-15.354 0-21.212z" fill="#a8f468"/><path d="m230.538 56.685c-16.248-16.248-38.02-26.062-60.99-26.653-.818-.021-1.638-.032-2.459-.032-24.808 0-48.096 9.625-65.574 27.104-19.666 19.665-28.636 46.038-26.91 71.822 1.446 21.595 11.118 41.819 26.422 57.123l11.952 11.951 129.437-129.437z" fill="#faef5a"/><path d="m452.589 80.375h-306.094c-8.284 0-15 6.716-15 15v372.188c0 24.503 19.935 44.438 44.438 44.438h247.219c24.503 0 44.438-19.935 44.438-44.438v-372.188c-.001-8.284-6.717-15-15.001-15zm-15 341.375h-276.094v-213.875h276.094z" fill="#dfecfd"/><path d="m452.589 80.375h-152.183v127.5h137.183v213.875h-137.183v90.25h122.746c24.503 0 44.438-19.935 44.438-44.438v-372.187c-.001-8.284-6.717-15-15.001-15z" fill="#c4e1f5"/><g><g><path d="m254.37 382c7.846 0 15.363-6.899 15-15-.364-8.127-6.591-15-15-15-7.846 0-15.363 6.899-15 15 .364 8.127 6.591 15 15 15z" fill="#a76831"/></g></g><g><g><path d="m344.715 342c7.846 0 15.363-6.899 15-15-.364-8.127-6.591-15-15-15-7.846 0-15.363 6.899-15 15 .364 8.127 6.59 15 15 15z" fill="#994820"/></g></g><path d="m300.184 207.875 5.857-30.28c1.574-8.134-3.744-16.002-11.878-17.575l-82.147-15.891c-3.903-.757-7.952.071-11.248 2.299s-5.572 5.673-6.328 9.579l-10.033 51.867 54.95 12.458z" fill="#f0f7fb"/><path d="m409.62 207.875c0-3.979-1.58-7.794-4.394-10.607l-59.164-59.163c-5.857-5.857-15.355-5.857-21.213 0l-59.163 59.163c-2.929 2.929-4.394 6.768-4.394 10.607l39.114 10z" fill="#fff"/><path d="m409.62 207.875c0-3.979-1.58-7.794-4.394-10.607l-59.164-59.163c-5.857-5.857-15.355-5.857-21.213 0l-24.443 24.443v55.327z" fill="#f0f7fb"/><path d="m184.408 207.875-5.857 30.279c-1.573 8.134 3.745 16.002 11.878 17.575l82.147 15.891c.945.184 1.899.273 2.849.273 2.972 0 5.901-.884 8.399-2.572 3.296-2.228 5.572-5.673 6.327-9.579l10.033-51.867z" fill="#b77943"/><path d="m261.292 207.875c0 3.839 1.465 7.677 4.394 10.606l59.163 59.163c2.929 2.93 6.768 4.394 10.606 4.394s7.678-1.465 10.606-4.394l59.164-59.163c2.813-2.812 4.393-6.628 4.394-10.606z" fill="#a76831"/><path d="m300.406 253.202 24.443 24.443c2.929 2.93 6.768 4.394 10.606 4.394s7.678-1.465 10.606-4.394l59.164-59.163c2.813-2.812 4.393-6.628 4.394-10.606h-109.213z" fill="#994820"/></g></svg>