<svg id="Capa_1" enable-background="new 0 0 509.278 509.278" height="512" viewBox="0 0 509.278 509.278" width="512" xmlns="http://www.w3.org/2000/svg"><g><g><path d="m221.116 34.219c-35.445 0-64.179 28.734-64.179 64.179l64.201 67.88 10-78-10-54.058c-.007 0-.015-.001-.022-.001z" fill="#ffb655"/><path d="m221.138 34.22v132.058l64.156-67.88c0-35.437-28.721-64.166-64.156-64.178z" fill="#ff8859"/></g><g><g><path d="m320.748 117.012h-30v-61.462c0-30.63 24.919-55.55 55.549-55.55h77.566v30h-77.566c-14.088 0-25.549 11.461-25.549 25.55z" fill="#087"/></g><path d="m92.759 160.278c0-35.445 28.734-64.179 64.179-64.179s64.179 28.734 64.179 64.179z" fill="#ffde55"/><path d="m221.116 160.278c0-35.445 28.734-64.179 64.179-64.179s64.179 28.734 64.179 64.179z" fill="#ffb655"/></g><g><path d="m85.414 155.34 10.915 90.712 124.809 65.558 10-91.262-10-65.008z" fill="#fff5cc"/><path d="m221.138 155.34v156.27l124.787-65.375 10.937-90.895z" fill="#ffe9cc"/></g><g><path d="m179.395 247.185-.181-.22-.181-.22c-22.808-27.735-59.657-27.956-82.705-.694l31.673 263.226h93.136l10-129.97-10-111.146c-15.104.029-30.217-6.961-41.742-20.976z" fill="#d19a75"/><path d="m345.925 246.235c-23.037-27.449-60.004-27.287-82.864.511l-.181.22-.181.22c-11.479 13.959-26.517 20.95-41.563 20.978v241.115h93.136z" fill="#c47e4e"/></g></g></svg>