<svg id="Capa_1" enable-background="new 0 0 501 501" height="512" viewBox="0 0 501 501" width="512" xmlns="http://www.w3.org/2000/svg"><g><path d="m5.5 256c0-135.159 109.445-244.755 244.547-245 134.874-.244 245.203 109.662 245.453 244.536.139 74.979-33.404 142.128-86.343 187.16-15.686 13.343-38.241 14.773-55.743 3.923-37.447-23.216-81.615-36.619-128.914-36.619-44.722 0-86.645 11.982-122.734 32.912-3.439 1.994-7.769 1.637-10.785-.953-52.331-44.933-85.481-111.574-85.481-185.959z" fill="#172a7d"/><path d="m442.5 171c0 106.039-85.961 192-192 192s-192-85.961-192-192c0-34.012 8.844-65.959 24.358-93.666 43.825-41.137 102.791-66.334 167.642-66.334s123.817 25.197 167.642 66.334c15.514 27.707 24.358 59.654 24.358 93.666z" fill="#1f3595"/><path d="m210.5 300c-38.66 0-70 31.34-70 70v83.17c0 10.052-11.056 16.118-19.582 10.795-10.723-6.695-20.891-14.197-30.418-22.42v-71.545c0-38.66 31.34-70 70-70z" fill="#f02399"/><path d="m410.5 370v71.545c-42.926 37.049-98.847 59.455-160 59.455-47.757 0-92.322-13.664-130-37.296v-93.704c0-38.66 31.34-70 70-70h150c38.66 0 70 31.34 70 70z" fill="#fd4fb6"/><path d="m265.124 386.508-24.944 62.715c-.727 1.828-2.481 2.942-4.335 2.942-.574 0-1.157-.107-1.722-.332-2.394-.952-3.563-3.664-2.61-6.058l24.944-62.715c.952-2.394 3.667-3.561 6.058-2.61 2.393.951 3.561 3.664 2.609 6.058zm-69.043 29.113 15.327-25.422c1.33-2.206.62-5.073-1.586-6.403-2.204-1.329-5.072-.62-6.403 1.586l-16.75 27.783c-.878 1.456-.894 3.275-.042 4.747l16.751 28.917c.865 1.493 2.431 2.327 4.041 2.327.793 0 1.598-.203 2.333-.629 2.23-1.291 2.99-4.145 1.699-6.375zm112.929-2.455-16.75-27.783c-1.33-2.206-4.198-2.916-6.403-1.586-2.207 1.33-2.917 4.197-1.586 6.403l15.327 25.422-15.369 26.532c-1.291 2.229-.531 5.083 1.699 6.375.736.426 1.54.629 2.333.629 1.609 0 3.176-.834 4.041-2.327l16.75-28.917c.852-1.473.837-3.292-.042-4.748z" fill="#fdc5e6"/><path d="m251.75 356.75h-3.817c-23.61 0-42.75-19.14-42.75-42.75v-14h89.317v14c0 23.61-19.14 42.75-42.75 42.75z" fill="#fff5f5"/><path d="m165.5 380v105.854c-6.815-2.521-13.486-5.336-20-8.431v-97.423c0-5.523 4.477-10 10-10s10 4.477 10 10zm180-10c-5.523 0-10 4.477-10 10v105.854c6.815-2.521 13.486-5.336 20-8.431v-97.423c0-5.523-4.477-10-10-10z" fill="#f02399"/><path d="m314.5 420h-40c-5.523 0-10-4.477-10-10 0-5.523 4.477-10 10-10h40c5.523 0 10 4.477 10 10 0 5.523-4.477 10-10 10z" fill="#e3ac6e"/><path d="m377.5 110v40c0 60.751-49.249 110-110 110-5.782 0-11.459-.447-17-1.306-5.541.86-11.218 1.306-17 1.306-60.751 0-110-49.249-110-110v-40c0-60.751 49.249-110 110-110 5.782 0 11.459.447 17 1.306 5.541-.859 11.218-1.306 17-1.306 60.751 0 110 49.249 110 110z" fill="#f57e00"/><path d="m366.5 65c.47 0 .939.003 1.408.009 6.163 13.734 9.592 28.962 9.592 44.991v40c0 60.751-49.249 110-110 110-.47 0-.939-.003-1.408-.009-6.164-13.734-9.592-28.962-9.592-44.991v-40c0-60.751 49.249-110 110-110z" fill="#fd8f01"/><path d="m140.5 210c-13.807 0-25-11.193-25-25v-10c0-13.807 11.193-25 25-25 13.807 0 25 11.193 25 25v10c0 13.807-11.193 25-25 25z" fill="#f3d6ac"/><path d="m385.5 175v10c0 13.807-11.193 25-25 25-2.468 0-4.853-.358-7.105-1.024-12.254 32.332-39.309 57.384-72.895 66.883v34.141c0 16.569-13.431 30-30 30-16.568 0-30-13.431-30-30v-34.141c-46.17-13.059-80-55.508-80-105.859v-40c0-60.751 49.249-110 110-110 60.751 0 110 49.249 110 110v20c13.807 0 25 11.193 25 25zm-245.002-25c-13.806.001-24.998 11.194-24.998 25v10c0 13.806 11.192 24.999 24.998 25-6.071-4.561-9.998-11.822-9.998-20v-20c0-8.178 3.927-15.439 9.998-20z" fill="#eabe8d"/><path d="m360.5 130v40c0 50.792-34.425 93.543-81.216 106.195-9.023 2.44-18.545 2.44-27.568 0-46.791-12.652-81.216-55.403-81.216-106.195v-40c0-55.663 41.345-101.669 95-108.985 53.655 7.316 95 53.322 95 108.985z" fill="#f3d6ac"/><path d="m376.017 91.895c-12.81 5.226-26.827 8.105-41.517 8.105-28.985 0-55.351-11.211-75-29.532-19.649 18.321-46.015 29.532-75 29.532-21.207 0-41.013-6.002-57.811-16.399 11.824-48.001 55.16-83.601 106.811-83.601 5.782 0 11.459.447 17 1.306 5.541-.859 11.218-1.306 17-1.306 54.585 0 99.884 39.758 108.517 91.895z" fill="#f57e00"/><path d="m367.018 63.076c4.253 9.004 7.32 18.677 9 28.82-12.811 5.225-26.828 8.104-41.518 8.104-28.985 0-55.351-11.211-75-29.532-19.649 18.322-46.515 29.97-75.5 29.97-3.183 0-6.124-.598-9.238-.863 13.519-45.445 55.903-78.56 105.738-78.56 35.11 0 66.378 16.449 86.518 42.061z" fill="#fd8f01"/><path d="m284.5 460c-5.523 0-10-4.477-10-10v-150c0-5.523 4.477-10 10-10 5.523 0 10 4.477 10 10v150c0 5.523-4.477 10-10 10z" fill="#463b83"/><path d="m394.5 170v40c0 60.751-49.249 110-110 110-60.751 0-110-49.249-110-110v-40c0-60.751 49.249-110 110-110 60.752 0 110 49.249 110 110z" fill="#0ab59e"/><path d="m394.5 170v40c0 60.751-49.249 110-110 110-6.277 0-12.43-.526-18.419-1.536-36.474-17.909-61.581-55.421-61.581-98.798v-59.333c0-43.376 25.107-80.888 61.581-98.797 5.989-1.01 12.143-1.536 18.419-1.536 60.752 0 110 49.249 110 110z" fill="#0ed1b2"/><path d="m365.999 124.304c12.63 22.598 15.281 45.159 5.92 50.391s-17.355-8.846-29.985-31.445c-12.63-22.598-25.114-45.159-15.754-50.391 9.361-5.232 27.189 8.847 39.819 31.445z" fill="#89e9d9"/><path d="m292.083 254.807c0 4.188-3.395 7.583-7.583 7.583s-7.583-3.395-7.583-7.583 3.395-7.583 7.583-7.583c4.188-.001 7.583 3.394 7.583 7.583zm31.748-97.508c-1.064-20.498-17.985-36.878-38.522-37.291-19.92-.398-37.061 14.168-39.814 33.893-.252 1.806-.379 3.65-.379 5.483 0 4.143 3.358 7.5 7.5 7.5s7.5-3.357 7.5-7.5c0-1.142.079-2.29.236-3.41 1.68-12.039 12.018-20.975 24.157-20.975.166 0 .333.002.499.005 12.712.257 23.186 10.391 23.844 23.072.351 6.768-2.017 13.191-6.668 18.091-4.654 4.902-10.934 7.602-17.683 7.602-4.142 0-7.5 3.357-7.5 7.5v33.341c0 4.143 3.358 7.5 7.5 7.5s7.5-3.357 7.5-7.5v-26.546c8.003-1.528 15.303-5.505 21.061-11.568 7.51-7.913 11.335-18.281 10.769-29.197z" fill="#006e66"/><path d="m364.5 430v10c0 11.046-8.954 20-20 20h-22.676c-3.458 5.978-9.921 10-17.324 10h-30c-11.046 0-20-8.954-20-20v-20c0-11.046 8.954-20 20-20h70c11.046 0 20 8.954 20 20z" fill="#eabe8d"/><path d="m400.5 470h-60c-5.523 0-10-4.477-10-10v-50c0-5.523 4.477-10 10-10h60c5.523 0 10 4.477 10 10v50c0 5.523-4.477 10-10 10z" fill="#fd4fb6"/><path d="m400.5 448.667h-60c-5.523 0-10-4.477-10-10v-28.667c0-5.523 4.477-10 10-10h60c5.523 0 10 4.477 10 10v28.667c0 5.523-4.477 10-10 10z" fill="#fd73c4"/></g></svg>